<svg width="197" height="183" viewBox="0 0 197 183" fill="none" xmlns="http://www.w3.org/2000/svg">
<g opacity="0.1">
<path d="M28.725 28.725C12.6809 44.769 2.69623 65.8798 0.472244 88.4603C-1.75174 111.041 3.92256 133.694 16.5283 152.56C29.134 171.425 47.8913 185.337 69.604 191.923C91.3167 198.51 114.642 197.364 135.604 188.681C156.567 179.998 173.87 164.315 184.566 144.304C195.262 124.294 198.688 101.194 194.262 78.94C189.835 56.6862 177.829 36.6558 160.29 22.2616C142.751 7.86736 120.763 0 98.0731 0V16.3925C116.97 16.3925 135.283 22.9449 149.891 34.9332C164.499 46.9215 174.498 63.6039 178.184 82.138C181.871 100.672 179.017 119.911 170.109 136.577C161.201 153.243 146.79 166.304 129.331 173.536C111.872 180.768 92.446 181.722 74.3625 176.237C56.279 170.751 40.657 159.165 30.1582 143.452C19.6595 127.74 14.9336 108.873 16.7859 90.067C18.6381 71.2608 26.9539 53.6786 40.3162 40.3162L28.725 28.725Z" fill="#E2E2E2"/>
<path d="M105.179 8.47044C105.537 3.96188 102.168 -0.0188141 97.6455 0.000900269C82.9705 0.0648499 68.4595 3.42232 55.1984 9.86826C39.4761 17.5106 26.0823 29.2164 16.4036 43.7738C6.72484 58.3312 1.11305 75.211 0.149185 92.6657C-0.814667 110.12 2.90443 127.516 10.9215 143.05C18.9385 158.585 30.962 171.694 45.7473 181.021C60.5325 190.348 77.5421 195.553 95.0148 196.099C112.488 196.644 129.789 192.509 145.126 184.122C158.063 177.047 169.207 167.165 177.761 155.241C180.398 151.566 179.105 146.514 175.223 144.193C171.341 141.873 166.344 143.168 163.647 146.798C156.633 156.238 147.643 164.078 137.269 169.751C124.492 176.738 110.08 180.182 95.5256 179.728C80.9707 179.274 66.8018 174.938 54.4857 167.169C42.1696 159.399 32.154 148.479 25.4758 135.539C18.7976 122.599 15.6996 108.109 16.5025 93.5688C17.3054 79.029 21.98 64.9681 30.0424 52.8418C38.1048 40.7155 49.2618 30.9645 62.3585 24.5985C72.9929 19.4293 84.5922 16.6445 96.3494 16.3964C100.871 16.3009 104.822 12.979 105.179 8.47044Z" fill="#F2C56E"/>
<path d="M105.179 8.47044C105.537 3.96188 102.168 -0.0187988 97.6455 0.000930786C87.5338 0.0450134 77.4728 1.6528 67.8229 4.78186C55.5717 8.75438 44.2229 15.101 34.4245 23.4595C24.6261 31.818 16.57 42.0245 10.7161 53.4964C6.10512 62.5325 2.93161 72.2143 1.29427 82.1926C0.56192 86.6557 3.96188 90.6096 8.47044 90.9671C12.979 91.3247 16.8821 87.9472 17.6891 83.4971C19.11 75.6612 21.6717 68.0603 25.3047 60.9407C30.181 51.3846 36.8918 42.8826 45.0538 35.92C53.2159 28.9574 62.6694 23.6706 72.8747 20.3615C80.478 17.8961 88.3875 16.5644 96.3495 16.3964C100.871 16.301 104.822 12.979 105.179 8.47044Z" fill="#92E4D1"/>
</g>
</svg>
