<svg width="355" height="217" viewBox="0 0 355 217" fill="none" xmlns="http://www.w3.org/2000/svg">
<path d="M282.576 51.8C282.576 50.976 282.756 50.24 283.116 49.592C283.476 48.936 283.968 48.428 284.592 48.068C285.216 47.7 285.912 47.516 286.68 47.516C287.616 47.516 288.416 47.74 289.08 48.188C289.752 48.628 290.24 49.252 290.544 50.06H289.56C289.32 49.492 288.952 49.048 288.456 48.728C287.968 48.408 287.376 48.248 286.68 48.248C286.064 48.248 285.508 48.392 285.012 48.68C284.524 48.968 284.14 49.384 283.86 49.928C283.58 50.464 283.44 51.088 283.44 51.8C283.44 52.512 283.58 53.136 283.86 53.672C284.14 54.208 284.524 54.62 285.012 54.908C285.508 55.196 286.064 55.34 286.68 55.34C287.376 55.34 287.968 55.184 288.456 54.872C288.952 54.552 289.32 54.112 289.56 53.552H290.544C290.24 54.352 289.752 54.972 289.08 55.412C288.408 55.852 287.608 56.072 286.68 56.072C285.912 56.072 285.216 55.892 284.592 55.532C283.968 55.164 283.476 54.656 283.116 54.008C282.756 53.36 282.576 52.624 282.576 51.8ZM295.086 56.096C294.47 56.096 293.914 55.96 293.418 55.688C292.93 55.408 292.542 55.016 292.254 54.512C291.974 54 291.834 53.404 291.834 52.724C291.834 52.044 291.978 51.452 292.266 50.948C292.554 50.436 292.946 50.044 293.442 49.772C293.938 49.492 294.494 49.352 295.11 49.352C295.726 49.352 296.282 49.492 296.778 49.772C297.282 50.044 297.674 50.436 297.954 50.948C298.242 51.452 298.386 52.044 298.386 52.724C298.386 53.396 298.242 53.988 297.954 54.5C297.666 55.012 297.27 55.408 296.766 55.688C296.262 55.96 295.702 56.096 295.086 56.096ZM295.086 55.364C295.518 55.364 295.918 55.268 296.286 55.076C296.654 54.876 296.95 54.58 297.174 54.188C297.406 53.788 297.522 53.3 297.522 52.724C297.522 52.148 297.41 51.664 297.186 51.272C296.962 50.872 296.666 50.576 296.298 50.384C295.93 50.184 295.53 50.084 295.098 50.084C294.666 50.084 294.266 50.184 293.898 50.384C293.53 50.576 293.234 50.872 293.01 51.272C292.794 51.664 292.686 52.148 292.686 52.724C292.686 53.3 292.794 53.788 293.01 54.188C293.234 54.58 293.526 54.876 293.886 55.076C294.254 55.268 294.654 55.364 295.086 55.364ZM307.717 49.328C308.485 49.328 309.109 49.572 309.589 50.06C310.077 50.54 310.321 51.24 310.321 52.16V56H309.493V52.256C309.493 51.544 309.321 51 308.977 50.624C308.633 50.248 308.165 50.06 307.573 50.06C306.957 50.06 306.465 50.264 306.097 50.672C305.729 51.08 305.545 51.672 305.545 52.448V56H304.717V52.256C304.717 51.544 304.545 51 304.201 50.624C303.857 50.248 303.385 50.06 302.785 50.06C302.169 50.06 301.677 50.264 301.309 50.672C300.941 51.08 300.757 51.672 300.757 52.448V56H299.917V49.448H300.757V50.576C300.965 50.168 301.261 49.86 301.645 49.652C302.029 49.436 302.457 49.328 302.929 49.328C303.497 49.328 303.993 49.464 304.417 49.736C304.849 50.008 305.161 50.408 305.353 50.936C305.529 50.416 305.829 50.02 306.253 49.748C306.685 49.468 307.173 49.328 307.717 49.328ZM313.015 50.888C313.223 50.448 313.551 50.084 313.999 49.796C314.455 49.5 314.995 49.352 315.619 49.352C316.211 49.352 316.743 49.492 317.215 49.772C317.695 50.044 318.067 50.436 318.331 50.948C318.603 51.452 318.739 52.04 318.739 52.712C318.739 53.384 318.603 53.976 318.331 54.488C318.067 55 317.695 55.396 317.215 55.676C316.743 55.956 316.211 56.096 315.619 56.096C315.003 56.096 314.467 55.952 314.011 55.664C313.555 55.368 313.223 55 313.015 54.56V59.096H312.187V49.448H313.015V50.888ZM317.887 52.712C317.887 52.168 317.779 51.7 317.563 51.308C317.355 50.908 317.067 50.604 316.699 50.396C316.331 50.188 315.915 50.084 315.451 50.084C315.003 50.084 314.591 50.192 314.215 50.408C313.847 50.624 313.555 50.932 313.339 51.332C313.123 51.732 313.015 52.196 313.015 52.724C313.015 53.252 313.123 53.716 313.339 54.116C313.555 54.516 313.847 54.824 314.215 55.04C314.591 55.256 315.003 55.364 315.451 55.364C315.915 55.364 316.331 55.26 316.699 55.052C317.067 54.836 317.355 54.528 317.563 54.128C317.779 53.72 317.887 53.248 317.887 52.712ZM321.124 47.12V56H320.284V47.12H321.124ZM328.954 52.388C328.954 52.676 328.946 52.896 328.93 53.048H323.494C323.518 53.544 323.638 53.968 323.854 54.32C324.07 54.672 324.354 54.94 324.706 55.124C325.058 55.3 325.442 55.388 325.858 55.388C326.402 55.388 326.858 55.256 327.226 54.992C327.602 54.728 327.85 54.372 327.97 53.924H328.858C328.698 54.564 328.354 55.088 327.826 55.496C327.306 55.896 326.65 56.096 325.858 56.096C325.242 56.096 324.69 55.96 324.202 55.688C323.714 55.408 323.33 55.016 323.05 54.512C322.778 54 322.642 53.404 322.642 52.724C322.642 52.044 322.778 51.448 323.05 50.936C323.322 50.424 323.702 50.032 324.19 49.76C324.678 49.488 325.234 49.352 325.858 49.352C326.482 49.352 327.026 49.488 327.49 49.76C327.962 50.032 328.322 50.4 328.57 50.864C328.826 51.32 328.954 51.828 328.954 52.388ZM328.102 52.364C328.11 51.876 328.01 51.46 327.802 51.116C327.602 50.772 327.326 50.512 326.974 50.336C326.622 50.16 326.238 50.072 325.822 50.072C325.198 50.072 324.666 50.272 324.226 50.672C323.786 51.072 323.542 51.636 323.494 52.364H328.102ZM331.583 50.156V54.224C331.583 54.624 331.659 54.9 331.811 55.052C331.963 55.204 332.231 55.28 332.615 55.28H333.383V56H332.483C331.891 56 331.451 55.864 331.163 55.592C330.875 55.312 330.731 54.856 330.731 54.224V50.156H329.819V49.448H330.731V47.804H331.583V49.448H333.383V50.156H331.583ZM340.697 52.388C340.697 52.676 340.689 52.896 340.673 53.048H335.237C335.261 53.544 335.381 53.968 335.597 54.32C335.813 54.672 336.097 54.94 336.449 55.124C336.801 55.3 337.185 55.388 337.601 55.388C338.145 55.388 338.601 55.256 338.969 54.992C339.345 54.728 339.593 54.372 339.713 53.924H340.601C340.441 54.564 340.097 55.088 339.569 55.496C339.049 55.896 338.393 56.096 337.601 56.096C336.985 56.096 336.433 55.96 335.945 55.688C335.457 55.408 335.073 55.016 334.793 54.512C334.521 54 334.385 53.404 334.385 52.724C334.385 52.044 334.521 51.448 334.793 50.936C335.065 50.424 335.445 50.032 335.933 49.76C336.421 49.488 336.977 49.352 337.601 49.352C338.225 49.352 338.769 49.488 339.233 49.76C339.705 50.032 340.065 50.4 340.313 50.864C340.569 51.32 340.697 51.828 340.697 52.388ZM339.845 52.364C339.853 51.876 339.753 51.46 339.545 51.116C339.345 50.772 339.069 50.512 338.717 50.336C338.365 50.16 337.981 50.072 337.565 50.072C336.941 50.072 336.409 50.272 335.969 50.672C335.529 51.072 335.285 51.636 335.237 52.364H339.845ZM341.849 52.712C341.849 52.04 341.985 51.452 342.257 50.948C342.529 50.436 342.901 50.044 343.373 49.772C343.853 49.492 344.393 49.352 344.993 49.352C345.569 49.352 346.089 49.492 346.553 49.772C347.017 50.052 347.357 50.416 347.573 50.864V47.12H348.413V56H347.573V54.536C347.373 54.992 347.045 55.368 346.589 55.664C346.133 55.952 345.597 56.096 344.981 56.096C344.381 56.096 343.841 55.956 343.361 55.676C342.889 55.396 342.517 55 342.245 54.488C341.981 53.976 341.849 53.384 341.849 52.712ZM347.573 52.724C347.573 52.196 347.465 51.732 347.249 51.332C347.033 50.932 346.737 50.624 346.361 50.408C345.993 50.192 345.585 50.084 345.137 50.084C344.673 50.084 344.257 50.188 343.889 50.396C343.521 50.604 343.229 50.908 343.013 51.308C342.805 51.7 342.701 52.168 342.701 52.712C342.701 53.248 342.805 53.72 343.013 54.128C343.229 54.528 343.521 54.836 343.889 55.052C344.257 55.26 344.673 55.364 345.137 55.364C345.585 55.364 345.993 55.256 346.361 55.04C346.737 54.824 347.033 54.516 347.249 54.116C347.465 53.716 347.573 53.252 347.573 52.724Z" fill="#2C2C2C" fill-opacity="0.7"/>
<circle cx="267.266" cy="52.2657" r="5.26567" fill="#92E4D1"/>
<path d="M284.491 74.8058C283.953 74.6325 283.542 74.3595 283.256 73.9868C282.978 73.6141 282.84 73.1635 282.84 72.6348C282.84 72.1668 282.957 71.7508 283.191 71.3868C283.433 71.0141 283.784 70.7238 284.244 70.5158C284.703 70.2991 285.253 70.1908 285.895 70.1908C286.536 70.1908 287.086 70.2991 287.546 70.5158C288.005 70.7238 288.352 71.0141 288.586 71.3868C288.828 71.7508 288.95 72.1668 288.95 72.6348C288.95 73.1548 288.807 73.6055 288.521 73.9868C288.243 74.3681 287.836 74.6411 287.299 74.8058C287.888 74.9531 288.352 75.2348 288.69 75.6508C289.028 76.0668 289.197 76.5738 289.197 77.1718C289.197 77.7265 289.058 78.2118 288.781 78.6278C288.512 79.0351 288.126 79.3515 287.624 79.5768C287.13 79.8021 286.553 79.9148 285.895 79.9148C285.236 79.9148 284.655 79.8021 284.153 79.5768C283.659 79.3515 283.273 79.0351 282.996 78.6278C282.727 78.2118 282.593 77.7265 282.593 77.1718C282.593 76.5738 282.762 76.0668 283.1 75.6508C283.438 75.2348 283.901 74.9531 284.491 74.8058ZM288.066 72.7388C288.066 72.1668 287.871 71.7248 287.481 71.4128C287.091 71.1008 286.562 70.9448 285.895 70.9448C285.227 70.9448 284.699 71.1008 284.309 71.4128C283.919 71.7161 283.724 72.1581 283.724 72.7388C283.724 73.2761 283.923 73.7051 284.322 74.0258C284.72 74.3465 285.245 74.5068 285.895 74.5068C286.545 74.5068 287.069 74.3465 287.468 74.0258C287.866 73.7051 288.066 73.2761 288.066 72.7388ZM285.895 75.2088C285.184 75.2088 284.603 75.3691 284.153 75.6898C283.702 76.0105 283.477 76.4958 283.477 77.1458C283.477 77.7698 283.693 78.2595 284.127 78.6148C284.56 78.9701 285.149 79.1478 285.895 79.1478C286.631 79.1478 287.216 78.9701 287.65 78.6148C288.083 78.2508 288.3 77.7611 288.3 77.1458C288.3 76.5045 288.074 76.0235 287.624 75.7028C287.182 75.3735 286.605 75.2088 285.895 75.2088ZM292.005 77.1588C292.1 77.7221 292.317 78.1555 292.655 78.4588C292.993 78.7621 293.457 78.9138 294.046 78.9138C294.861 78.9138 295.463 78.5975 295.853 77.9648C296.252 77.3235 296.434 76.2661 296.399 74.7928C296.234 75.2695 295.918 75.6465 295.45 75.9238C294.991 76.1925 294.462 76.3268 293.864 76.3268C292.954 76.3268 292.222 76.0538 291.667 75.5078C291.121 74.9618 290.848 74.2035 290.848 73.2328C290.848 72.6521 290.961 72.1278 291.186 71.6598C291.411 71.1918 291.754 70.8235 292.213 70.5548C292.672 70.2861 293.236 70.1518 293.903 70.1518C295.134 70.1518 295.992 70.5548 296.477 71.3608C296.962 72.1581 297.205 73.3065 297.205 74.8058C297.205 76.4265 296.962 77.6441 296.477 78.4588C296 79.2735 295.177 79.6808 294.007 79.6808C293.149 79.6808 292.482 79.4511 292.005 78.9918C291.528 78.5238 291.247 77.9128 291.16 77.1588H292.005ZM294.007 75.5468C294.414 75.5468 294.787 75.4645 295.125 75.2998C295.472 75.1265 295.749 74.8751 295.957 74.5458C296.165 74.2165 296.269 73.8221 296.269 73.3628C296.269 72.6521 296.065 72.0671 295.658 71.6078C295.259 71.1485 294.683 70.9188 293.929 70.9188C293.262 70.9188 292.724 71.1268 292.317 71.5428C291.918 71.9588 291.719 72.5135 291.719 73.2068C291.719 73.9348 291.918 74.5068 292.317 74.9228C292.716 75.3388 293.279 75.5468 294.007 75.5468Z" fill="#2C2C2C"/>
<path d="M284.272 108.746V117.134H283.432V108.746H284.272ZM289.246 110.462C290.03 110.462 290.67 110.706 291.166 111.194C291.662 111.674 291.91 112.374 291.91 113.294V117.134H291.082V113.39C291.082 112.678 290.902 112.134 290.542 111.758C290.19 111.382 289.706 111.194 289.09 111.194C288.458 111.194 287.954 111.394 287.578 111.794C287.202 112.194 287.014 112.782 287.014 113.558V117.134H286.174V110.582H287.014V111.698C287.222 111.298 287.522 110.994 287.914 110.786C288.306 110.57 288.75 110.462 289.246 110.462ZM297.889 112.022C298.097 111.582 298.425 111.218 298.873 110.93C299.329 110.634 299.869 110.486 300.493 110.486C301.085 110.486 301.617 110.626 302.089 110.906C302.569 111.178 302.941 111.57 303.205 112.082C303.477 112.586 303.613 113.174 303.613 113.846C303.613 114.518 303.477 115.11 303.205 115.622C302.941 116.134 302.569 116.53 302.089 116.81C301.617 117.09 301.085 117.23 300.493 117.23C299.877 117.23 299.341 117.086 298.885 116.798C298.429 116.502 298.097 116.134 297.889 115.694V120.23H297.061V110.582H297.889V112.022ZM302.761 113.846C302.761 113.302 302.653 112.834 302.437 112.442C302.229 112.042 301.941 111.738 301.573 111.53C301.205 111.322 300.789 111.218 300.325 111.218C299.877 111.218 299.465 111.326 299.089 111.542C298.721 111.758 298.429 112.066 298.213 112.466C297.997 112.866 297.889 113.33 297.889 113.858C297.889 114.386 297.997 114.85 298.213 115.25C298.429 115.65 298.721 115.958 299.089 116.174C299.465 116.39 299.877 116.498 300.325 116.498C300.789 116.498 301.205 116.394 301.573 116.186C301.941 115.97 302.229 115.662 302.437 115.262C302.653 114.854 302.761 114.382 302.761 113.846ZM305.998 111.746C306.182 111.338 306.462 111.022 306.838 110.798C307.222 110.574 307.69 110.462 308.242 110.462V111.338H308.014C307.406 111.338 306.918 111.502 306.55 111.83C306.182 112.158 305.998 112.706 305.998 113.474V117.134H305.158V110.582H305.998V111.746ZM312.374 117.23C311.758 117.23 311.202 117.094 310.706 116.822C310.218 116.542 309.83 116.15 309.542 115.646C309.262 115.134 309.122 114.538 309.122 113.858C309.122 113.178 309.266 112.586 309.554 112.082C309.842 111.57 310.234 111.178 310.73 110.906C311.226 110.626 311.782 110.486 312.398 110.486C313.014 110.486 313.57 110.626 314.066 110.906C314.57 111.178 314.962 111.57 315.242 112.082C315.53 112.586 315.674 113.178 315.674 113.858C315.674 114.53 315.53 115.122 315.242 115.634C314.954 116.146 314.558 116.542 314.054 116.822C313.55 117.094 312.99 117.23 312.374 117.23ZM312.374 116.498C312.806 116.498 313.206 116.402 313.574 116.21C313.942 116.01 314.238 115.714 314.462 115.322C314.694 114.922 314.81 114.434 314.81 113.858C314.81 113.282 314.698 112.798 314.474 112.406C314.25 112.006 313.954 111.71 313.586 111.518C313.218 111.318 312.818 111.218 312.386 111.218C311.954 111.218 311.554 111.318 311.186 111.518C310.818 111.71 310.522 112.006 310.298 112.406C310.082 112.798 309.974 113.282 309.974 113.858C309.974 114.434 310.082 114.922 310.298 115.322C310.522 115.714 310.814 116.01 311.174 116.21C311.542 116.402 311.942 116.498 312.374 116.498ZM319.953 110.486C320.569 110.486 321.105 110.63 321.561 110.918C322.017 111.206 322.345 111.57 322.545 112.01V110.582H323.385V117.302C323.385 117.902 323.253 118.434 322.989 118.898C322.733 119.362 322.373 119.718 321.909 119.966C321.445 120.222 320.917 120.35 320.325 120.35C319.485 120.35 318.785 120.15 318.225 119.75C317.673 119.35 317.329 118.806 317.193 118.118H318.021C318.165 118.574 318.437 118.938 318.837 119.21C319.245 119.482 319.741 119.618 320.325 119.618C320.749 119.618 321.129 119.526 321.465 119.342C321.801 119.166 322.065 118.902 322.257 118.55C322.449 118.198 322.545 117.782 322.545 117.302V115.682C322.337 116.13 322.005 116.502 321.549 116.798C321.101 117.086 320.569 117.23 319.953 117.23C319.353 117.23 318.813 117.09 318.333 116.81C317.861 116.53 317.489 116.134 317.217 115.622C316.953 115.11 316.821 114.518 316.821 113.846C316.821 113.174 316.953 112.586 317.217 112.082C317.489 111.57 317.861 111.178 318.333 110.906C318.813 110.626 319.353 110.486 319.953 110.486ZM322.545 113.858C322.545 113.33 322.437 112.866 322.221 112.466C322.005 112.066 321.709 111.758 321.333 111.542C320.965 111.326 320.557 111.218 320.109 111.218C319.645 111.218 319.229 111.322 318.861 111.53C318.493 111.738 318.201 112.042 317.985 112.442C317.777 112.834 317.673 113.302 317.673 113.846C317.673 114.382 317.777 114.854 317.985 115.262C318.201 115.662 318.493 115.97 318.861 116.186C319.229 116.394 319.645 116.498 320.109 116.498C320.557 116.498 320.965 116.39 321.333 116.174C321.709 115.958 322.005 115.65 322.221 115.25C322.437 114.85 322.545 114.386 322.545 113.858ZM326.143 111.746C326.327 111.338 326.607 111.022 326.983 110.798C327.367 110.574 327.835 110.462 328.387 110.462V111.338H328.159C327.551 111.338 327.063 111.502 326.695 111.83C326.327 112.158 326.143 112.706 326.143 113.474V117.134H325.303V110.582H326.143V111.746ZM335.578 113.522C335.578 113.81 335.57 114.03 335.554 114.182H330.118C330.142 114.678 330.262 115.102 330.478 115.454C330.694 115.806 330.978 116.074 331.33 116.258C331.682 116.434 332.066 116.522 332.482 116.522C333.026 116.522 333.482 116.39 333.85 116.126C334.226 115.862 334.474 115.506 334.594 115.058H335.482C335.322 115.698 334.978 116.222 334.45 116.63C333.93 117.03 333.274 117.23 332.482 117.23C331.866 117.23 331.314 117.094 330.826 116.822C330.338 116.542 329.954 116.15 329.674 115.646C329.402 115.134 329.266 114.538 329.266 113.858C329.266 113.178 329.402 112.582 329.674 112.07C329.946 111.558 330.326 111.166 330.814 110.894C331.302 110.622 331.858 110.486 332.482 110.486C333.106 110.486 333.65 110.622 334.114 110.894C334.586 111.166 334.946 111.534 335.194 111.998C335.45 112.454 335.578 112.962 335.578 113.522ZM334.726 113.498C334.734 113.01 334.634 112.594 334.426 112.25C334.226 111.906 333.95 111.646 333.598 111.47C333.246 111.294 332.862 111.206 332.446 111.206C331.822 111.206 331.29 111.406 330.85 111.806C330.41 112.206 330.166 112.77 330.118 113.498H334.726ZM339.371 117.23C338.619 117.23 338.003 117.058 337.523 116.714C337.051 116.362 336.787 115.886 336.731 115.286H337.595C337.635 115.654 337.807 115.954 338.111 116.186C338.423 116.41 338.839 116.522 339.359 116.522C339.815 116.522 340.171 116.414 340.427 116.198C340.691 115.982 340.823 115.714 340.823 115.394C340.823 115.17 340.751 114.986 340.607 114.842C340.463 114.698 340.279 114.586 340.055 114.506C339.839 114.418 339.543 114.326 339.167 114.23C338.679 114.102 338.283 113.974 337.979 113.846C337.675 113.718 337.415 113.53 337.199 113.282C336.991 113.026 336.887 112.686 336.887 112.262C336.887 111.942 336.983 111.646 337.175 111.374C337.367 111.102 337.639 110.886 337.991 110.726C338.343 110.566 338.743 110.486 339.191 110.486C339.895 110.486 340.463 110.666 340.895 111.026C341.327 111.378 341.559 111.866 341.591 112.49H340.751C340.727 112.106 340.575 111.798 340.295 111.566C340.023 111.326 339.647 111.206 339.167 111.206C338.743 111.206 338.399 111.306 338.135 111.506C337.871 111.706 337.739 111.954 337.739 112.25C337.739 112.506 337.815 112.718 337.967 112.886C338.127 113.046 338.323 113.174 338.555 113.27C338.787 113.358 339.099 113.458 339.491 113.57C339.963 113.698 340.339 113.822 340.619 113.942C340.899 114.062 341.139 114.238 341.339 114.47C341.539 114.702 341.643 115.01 341.651 115.394C341.651 115.746 341.555 116.062 341.363 116.342C341.171 116.614 340.903 116.83 340.559 116.99C340.215 117.15 339.819 117.23 339.371 117.23ZM345.488 117.23C344.736 117.23 344.12 117.058 343.64 116.714C343.168 116.362 342.904 115.886 342.848 115.286H343.712C343.752 115.654 343.924 115.954 344.228 116.186C344.54 116.41 344.956 116.522 345.476 116.522C345.932 116.522 346.288 116.414 346.544 116.198C346.808 115.982 346.94 115.714 346.94 115.394C346.94 115.17 346.868 114.986 346.724 114.842C346.58 114.698 346.396 114.586 346.172 114.506C345.956 114.418 345.66 114.326 345.284 114.23C344.796 114.102 344.4 113.974 344.096 113.846C343.792 113.718 343.532 113.53 343.316 113.282C343.108 113.026 343.004 112.686 343.004 112.262C343.004 111.942 343.1 111.646 343.292 111.374C343.484 111.102 343.756 110.886 344.108 110.726C344.46 110.566 344.86 110.486 345.308 110.486C346.012 110.486 346.58 110.666 347.012 111.026C347.444 111.378 347.676 111.866 347.708 112.49H346.868C346.844 112.106 346.692 111.798 346.412 111.566C346.14 111.326 345.764 111.206 345.284 111.206C344.86 111.206 344.516 111.306 344.252 111.506C343.988 111.706 343.856 111.954 343.856 112.25C343.856 112.506 343.932 112.718 344.084 112.886C344.244 113.046 344.44 113.174 344.672 113.27C344.904 113.358 345.216 113.458 345.608 113.57C346.08 113.698 346.456 113.822 346.736 113.942C347.016 114.062 347.256 114.238 347.456 114.47C347.656 114.702 347.76 115.01 347.768 115.394C347.768 115.746 347.672 116.062 347.48 116.342C347.288 116.614 347.02 116.83 346.676 116.99C346.332 117.15 345.936 117.23 345.488 117.23Z" fill="#2C2C2C" fill-opacity="0.7"/>
<path d="M282.403 134.498V133.679H284.613V143H283.69V134.498H282.403ZM286.459 142.285C288.054 141.089 289.284 140.019 290.151 139.074C291.026 138.121 291.464 137.189 291.464 136.279C291.464 135.681 291.312 135.204 291.009 134.849C290.714 134.485 290.229 134.303 289.553 134.303C288.894 134.303 288.383 134.511 288.019 134.927C287.664 135.334 287.464 135.88 287.421 136.565H286.537C286.589 135.603 286.884 134.858 287.421 134.329C287.967 133.792 288.678 133.523 289.553 133.523C290.394 133.523 291.074 133.761 291.594 134.238C292.114 134.706 292.374 135.373 292.374 136.24C292.374 137.289 291.936 138.307 291.061 139.295C290.194 140.274 289.124 141.232 287.85 142.168H292.66V142.935H286.459V142.285ZM294.08 138.255C294.08 136.764 294.31 135.607 294.769 134.784C295.229 133.961 296.052 133.549 297.239 133.549C298.427 133.549 299.25 133.961 299.709 134.784C300.169 135.607 300.398 136.764 300.398 138.255C300.398 139.772 300.169 140.946 299.709 141.778C299.25 142.61 298.427 143.026 297.239 143.026C296.043 143.026 295.216 142.61 294.756 141.778C294.306 140.946 294.08 139.772 294.08 138.255ZM299.501 138.255C299.501 137.449 299.445 136.769 299.332 136.214C299.22 135.659 298.999 135.213 298.669 134.875C298.34 134.537 297.863 134.368 297.239 134.368C296.615 134.368 296.139 134.537 295.809 134.875C295.48 135.213 295.259 135.659 295.146 136.214C295.034 136.769 294.977 137.449 294.977 138.255C294.977 139.087 295.034 139.785 295.146 140.348C295.259 140.903 295.48 141.349 295.809 141.687C296.139 142.025 296.615 142.194 297.239 142.194C297.863 142.194 298.34 142.025 298.669 141.687C298.999 141.349 299.22 140.903 299.332 140.348C299.445 139.785 299.501 139.087 299.501 138.255Z" fill="#2C2C2C"/>
<circle cx="267.266" cy="113.266" r="5.26567" fill="#F2C56E"/>
<path d="M167.547 174.141C183.591 158.097 193.575 136.986 195.799 114.405C198.023 91.8249 192.349 69.1719 179.743 50.306C167.138 31.4402 148.38 17.5289 126.668 10.9424C104.955 4.35592 81.6301 5.50179 60.6675 14.1848C39.705 22.8678 22.4016 38.5506 11.7057 58.5612C1.00985 78.5717 -2.41673 101.672 2.00981 123.926C6.43636 146.179 18.4422 166.21 35.9816 180.604C53.521 194.998 75.5088 202.866 98.1985 202.866L98.1985 186.473C79.3013 186.473 60.9886 179.921 46.3809 167.932C31.7731 155.944 21.7741 139.262 18.0874 120.728C14.4007 102.194 17.2546 82.9545 26.1627 66.2886C35.0708 49.6227 49.4819 36.5612 66.9407 29.3295C84.3995 22.0979 103.826 21.1435 121.909 26.6291C139.993 32.1147 155.615 43.7008 166.113 59.4132C176.612 75.1257 181.338 93.9924 179.486 112.799C177.634 131.605 169.318 149.187 155.955 162.549L167.547 174.141Z" fill="#E2E2E2"/>
<g filter="url(#filter0_d_60_3)">
<path d="M91.0925 194.395C90.7349 198.904 94.1035 202.884 98.6262 202.865C113.301 202.801 127.812 199.443 141.073 192.997C156.795 185.355 170.189 173.649 179.868 159.092C189.547 144.535 195.159 127.655 196.122 110.2C197.086 92.7453 193.367 75.3502 185.35 59.8156C177.333 44.281 165.31 31.1716 150.524 21.8447C135.739 12.5177 118.73 7.31223 101.257 6.7671C83.784 6.22197 66.4831 10.357 51.1451 18.7442C38.2083 25.8183 27.0647 35.7006 18.5104 47.6248C15.8741 51.2997 17.167 56.3515 21.049 58.6722V58.6722C24.9309 60.9928 29.9273 59.6975 32.6248 56.0673C39.6387 46.628 48.6287 38.7872 59.0031 33.1142C71.7795 26.1278 86.1912 22.6833 100.746 23.1373C115.301 23.5914 129.47 27.9276 141.786 35.697C154.102 43.4663 164.118 54.3864 170.796 67.3267C177.474 80.267 180.572 94.7572 179.769 109.297C178.966 123.837 174.292 137.898 166.229 150.024C158.167 162.15 147.01 171.901 133.913 178.267C123.279 183.436 111.679 186.221 99.9222 186.469C95.4005 186.565 91.45 189.887 91.0925 194.395V194.395Z" fill="#F2C56E"/>
</g>
<g filter="url(#filter1_d_60_3)">
<path d="M91.0925 194.395C90.7349 198.904 94.1035 202.884 98.6261 202.865C108.738 202.821 118.799 201.213 128.449 198.084C140.7 194.111 152.049 187.765 161.847 179.406C171.646 171.048 179.702 160.841 185.556 149.369C190.167 140.333 193.34 130.651 194.977 120.673C195.71 116.21 192.31 112.256 187.801 111.899V111.899C183.293 111.541 179.39 114.918 178.583 119.369C177.162 127.205 174.6 134.805 170.967 141.925C166.091 151.481 159.38 159.983 151.218 166.946C143.056 173.908 133.602 179.195 123.397 182.504C115.794 184.97 107.884 186.301 99.9222 186.469C95.4005 186.565 91.45 189.887 91.0925 194.395V194.395Z" fill="#92E4D1"/>
</g>
<path d="M79.392 90.824C79.488 89.336 80.056 88.176 81.096 87.344C82.152 86.512 83.496 86.096 85.128 86.096C86.248 86.096 87.216 86.296 88.032 86.696C88.848 87.096 89.464 87.64 89.88 88.328C90.296 89.016 90.504 89.792 90.504 90.656C90.504 91.648 90.24 92.496 89.712 93.2C89.184 93.904 88.552 94.376 87.816 94.616V94.712C88.76 95 89.496 95.528 90.024 96.296C90.552 97.048 90.816 98.016 90.816 99.2C90.816 100.144 90.6 100.984 90.168 101.72C89.736 102.456 89.096 103.04 88.248 103.472C87.4 103.888 86.384 104.096 85.2 104.096C83.472 104.096 82.048 103.656 80.928 102.776C79.824 101.88 79.232 100.6 79.152 98.936H81.792C81.856 99.784 82.184 100.48 82.776 101.024C83.368 101.552 84.168 101.816 85.176 101.816C86.152 101.816 86.904 101.552 87.432 101.024C87.96 100.48 88.224 99.784 88.224 98.936C88.224 97.816 87.864 97.024 87.144 96.56C86.44 96.08 85.352 95.84 83.88 95.84H83.256V93.584H83.904C85.2 93.568 86.184 93.352 86.856 92.936C87.544 92.52 87.888 91.864 87.888 90.968C87.888 90.2 87.64 89.592 87.144 89.144C86.648 88.68 85.944 88.448 85.032 88.448C84.136 88.448 83.44 88.68 82.944 89.144C82.448 89.592 82.152 90.152 82.056 90.824H79.392ZM103.098 90.56C102.922 89.824 102.602 89.272 102.138 88.904C101.674 88.536 101.026 88.352 100.194 88.352C98.93 88.352 97.986 88.84 97.362 89.816C96.738 90.776 96.41 92.376 96.378 94.616C96.794 93.912 97.402 93.368 98.202 92.984C99.002 92.6 99.866 92.408 100.794 92.408C101.85 92.408 102.778 92.64 103.578 93.104C104.394 93.552 105.026 94.208 105.474 95.072C105.938 95.936 106.17 96.968 106.17 98.168C106.17 99.288 105.946 100.288 105.498 101.168C105.066 102.048 104.418 102.744 103.554 103.256C102.69 103.752 101.65 104 100.434 104C98.786 104 97.49 103.64 96.546 102.92C95.618 102.184 94.962 101.152 94.578 99.824C94.21 98.496 94.026 96.84 94.026 94.856C94.026 89 96.09 86.072 100.218 86.072C101.818 86.072 103.074 86.504 103.986 87.368C104.914 88.232 105.458 89.296 105.618 90.56H103.098ZM100.194 94.712C99.218 94.712 98.386 95.008 97.698 95.6C97.026 96.176 96.69 97.016 96.69 98.12C96.69 99.224 97.002 100.104 97.626 100.76C98.266 101.4 99.154 101.72 100.29 101.72C101.298 101.72 102.09 101.408 102.666 100.784C103.258 100.16 103.554 99.328 103.554 98.288C103.554 97.2 103.266 96.336 102.69 95.696C102.13 95.04 101.298 94.712 100.194 94.712ZM120.176 88.616L113.504 104H110.744L117.488 88.904H108.608V86.576H120.176V88.616Z" fill="#2C2C2C"/>
<path d="M62.48 119.5C62.48 118.813 62.63 118.2 62.93 117.66C63.23 117.113 63.64 116.69 64.16 116.39C64.68 116.083 65.26 115.93 65.9 115.93C66.68 115.93 67.3467 116.117 67.9 116.49C68.46 116.857 68.8667 117.377 69.12 118.05H68.3C68.1 117.577 67.7933 117.207 67.38 116.94C66.9733 116.673 66.48 116.54 65.9 116.54C65.3867 116.54 64.9233 116.66 64.51 116.9C64.1033 117.14 63.7833 117.487 63.55 117.94C63.3167 118.387 63.2 118.907 63.2 119.5C63.2 120.093 63.3167 120.613 63.55 121.06C63.7833 121.507 64.1033 121.85 64.51 122.09C64.9233 122.33 65.3867 122.45 65.9 122.45C66.48 122.45 66.9733 122.32 67.38 122.06C67.7933 121.793 68.1 121.427 68.3 120.96H69.12C68.8667 121.627 68.46 122.143 67.9 122.51C67.34 122.877 66.6733 123.06 65.9 123.06C65.26 123.06 64.68 122.91 64.16 122.61C63.64 122.303 63.23 121.88 62.93 121.34C62.63 120.8 62.48 120.187 62.48 119.5ZM71.2148 118.51C71.3682 118.17 71.6015 117.907 71.9148 117.72C72.2348 117.533 72.6248 117.44 73.0848 117.44V118.17H72.8948C72.3882 118.17 71.9815 118.307 71.6748 118.58C71.3682 118.853 71.2148 119.31 71.2148 119.95V123H70.5148V117.54H71.2148V118.51ZM79.0779 119.99C79.0779 120.23 79.0712 120.413 79.0579 120.54H74.5279C74.5479 120.953 74.6479 121.307 74.8279 121.6C75.0079 121.893 75.2446 122.117 75.5379 122.27C75.8312 122.417 76.1512 122.49 76.4979 122.49C76.9512 122.49 77.3312 122.38 77.6379 122.16C77.9512 121.94 78.1579 121.643 78.2579 121.27H78.9979C78.8646 121.803 78.5779 122.24 78.1379 122.58C77.7046 122.913 77.1579 123.08 76.4979 123.08C75.9846 123.08 75.5246 122.967 75.1179 122.74C74.7112 122.507 74.3912 122.18 74.1579 121.76C73.9312 121.333 73.8179 120.837 73.8179 120.27C73.8179 119.703 73.9312 119.207 74.1579 118.78C74.3846 118.353 74.7012 118.027 75.1079 117.8C75.5146 117.573 75.9779 117.46 76.4979 117.46C77.0179 117.46 77.4712 117.573 77.8579 117.8C78.2512 118.027 78.5512 118.333 78.7579 118.72C78.9712 119.1 79.0779 119.523 79.0779 119.99ZM78.3679 119.97C78.3746 119.563 78.2912 119.217 78.1179 118.93C77.9512 118.643 77.7212 118.427 77.4279 118.28C77.1346 118.133 76.8146 118.06 76.4679 118.06C75.9479 118.06 75.5046 118.227 75.1379 118.56C74.7712 118.893 74.5679 119.363 74.5279 119.97H78.3679ZM80.0386 120.26C80.0386 119.7 80.1486 119.21 80.3686 118.79C80.5953 118.363 80.9053 118.037 81.2986 117.81C81.6986 117.577 82.1486 117.46 82.6486 117.46C83.1686 117.46 83.6153 117.58 83.9886 117.82C84.3686 118.06 84.6419 118.367 84.8086 118.74V117.54H85.5086V123H84.8086V121.79C84.6353 122.163 84.3586 122.473 83.9786 122.72C83.6053 122.96 83.1586 123.08 82.6386 123.08C82.1453 123.08 81.6986 122.963 81.2986 122.73C80.9053 122.497 80.5953 122.167 80.3686 121.74C80.1486 121.313 80.0386 120.82 80.0386 120.26ZM84.8086 120.27C84.8086 119.83 84.7186 119.443 84.5386 119.11C84.3586 118.777 84.1119 118.52 83.7986 118.34C83.4919 118.16 83.1519 118.07 82.7786 118.07C82.3919 118.07 82.0453 118.157 81.7386 118.33C81.4319 118.503 81.1886 118.757 81.0086 119.09C80.8353 119.417 80.7486 119.807 80.7486 120.26C80.7486 120.707 80.8353 121.1 81.0086 121.44C81.1886 121.773 81.4319 122.03 81.7386 122.21C82.0453 122.383 82.3919 122.47 82.7786 122.47C83.1519 122.47 83.4919 122.38 83.7986 122.2C84.1119 122.02 84.3586 121.763 84.5386 121.43C84.7186 121.097 84.8086 120.71 84.8086 120.27ZM88.0166 118.13V121.52C88.0166 121.853 88.08 122.083 88.2066 122.21C88.3333 122.337 88.5566 122.4 88.8766 122.4H89.5166V123H88.7666C88.2733 123 87.9066 122.887 87.6666 122.66C87.4266 122.427 87.3066 122.047 87.3066 121.52V118.13H86.5466V117.54H87.3066V116.17H88.0166V117.54H89.5166V118.13H88.0166ZM95.6111 119.99C95.6111 120.23 95.6044 120.413 95.5911 120.54H91.0611C91.0811 120.953 91.1811 121.307 91.3611 121.6C91.5411 121.893 91.7778 122.117 92.0711 122.27C92.3644 122.417 92.6844 122.49 93.0311 122.49C93.4844 122.49 93.8644 122.38 94.1711 122.16C94.4844 121.94 94.6911 121.643 94.7911 121.27H95.5311C95.3978 121.803 95.1111 122.24 94.6711 122.58C94.2378 122.913 93.6911 123.08 93.0311 123.08C92.5178 123.08 92.0578 122.967 91.6511 122.74C91.2444 122.507 90.9244 122.18 90.6911 121.76C90.4644 121.333 90.3511 120.837 90.3511 120.27C90.3511 119.703 90.4644 119.207 90.6911 118.78C90.9178 118.353 91.2344 118.027 91.6411 117.8C92.0478 117.573 92.5111 117.46 93.0311 117.46C93.5511 117.46 94.0044 117.573 94.3911 117.8C94.7844 118.027 95.0844 118.333 95.2911 118.72C95.5044 119.1 95.6111 119.523 95.6111 119.99ZM94.9011 119.97C94.9078 119.563 94.8244 119.217 94.6511 118.93C94.4844 118.643 94.2544 118.427 93.9611 118.28C93.6678 118.133 93.3478 118.06 93.0011 118.06C92.4811 118.06 92.0378 118.227 91.6711 118.56C91.3044 118.893 91.1011 119.363 91.0611 119.97H94.9011ZM96.5718 120.26C96.5718 119.7 96.6851 119.21 96.9118 118.79C97.1385 118.363 97.4485 118.037 97.8418 117.81C98.2418 117.577 98.6918 117.46 99.1918 117.46C99.6718 117.46 100.105 117.577 100.492 117.81C100.878 118.043 101.162 118.347 101.342 118.72V115.6H102.042V123H101.342V121.78C101.175 122.16 100.902 122.473 100.522 122.72C100.142 122.96 99.6951 123.08 99.1818 123.08C98.6818 123.08 98.2318 122.963 97.8318 122.73C97.4385 122.497 97.1285 122.167 96.9018 121.74C96.6818 121.313 96.5718 120.82 96.5718 120.26ZM101.342 120.27C101.342 119.83 101.252 119.443 101.072 119.11C100.892 118.777 100.645 118.52 100.332 118.34C100.025 118.16 99.6851 118.07 99.3118 118.07C98.9251 118.07 98.5785 118.157 98.2718 118.33C97.9651 118.503 97.7218 118.757 97.5418 119.09C97.3685 119.417 97.2818 119.807 97.2818 120.26C97.2818 120.707 97.3685 121.1 97.5418 121.44C97.7218 121.773 97.9651 122.03 98.2718 122.21C98.5785 122.383 98.9251 122.47 99.3118 122.47C99.6851 122.47 100.025 122.38 100.332 122.2C100.645 122.02 100.892 121.763 101.072 121.43C101.252 121.097 101.342 120.71 101.342 120.27ZM107.294 118.13V121.52C107.294 121.853 107.357 122.083 107.484 122.21C107.611 122.337 107.834 122.4 108.154 122.4H108.794V123H108.044C107.551 123 107.184 122.887 106.944 122.66C106.704 122.427 106.584 122.047 106.584 121.52V118.13H105.824V117.54H106.584V116.17H107.294V117.54H108.794V118.13H107.294ZM110.298 116.51C110.158 116.51 110.038 116.46 109.938 116.36C109.838 116.26 109.788 116.137 109.788 115.99C109.788 115.843 109.838 115.723 109.938 115.63C110.038 115.53 110.158 115.48 110.298 115.48C110.438 115.48 110.558 115.53 110.658 115.63C110.758 115.723 110.808 115.843 110.808 115.99C110.808 116.137 110.758 116.26 110.658 116.36C110.558 116.46 110.438 116.51 110.298 116.51ZM110.648 117.54V123H109.948V117.54H110.648ZM111.914 120.27C111.914 119.703 112.027 119.21 112.254 118.79C112.48 118.363 112.794 118.037 113.194 117.81C113.594 117.577 114.05 117.46 114.564 117.46C115.237 117.46 115.79 117.627 116.224 117.96C116.664 118.293 116.947 118.747 117.074 119.32H116.324C116.23 118.927 116.027 118.62 115.714 118.4C115.407 118.173 115.024 118.06 114.564 118.06C114.197 118.06 113.867 118.143 113.574 118.31C113.28 118.477 113.047 118.727 112.874 119.06C112.707 119.387 112.624 119.79 112.624 120.27C112.624 120.75 112.707 121.157 112.874 121.49C113.047 121.823 113.28 122.073 113.574 122.24C113.867 122.407 114.197 122.49 114.564 122.49C115.024 122.49 115.407 122.38 115.714 122.16C116.027 121.933 116.23 121.62 116.324 121.22H117.074C116.947 121.78 116.664 122.23 116.224 122.57C115.784 122.91 115.23 123.08 114.564 123.08C114.05 123.08 113.594 122.967 113.194 122.74C112.794 122.507 112.48 122.18 112.254 121.76C112.027 121.333 111.914 120.837 111.914 120.27ZM121.316 123L119.066 120.55V123H118.366V115.6H119.066V119.98L121.266 117.54H122.246L119.656 120.26L122.266 123H121.316ZM128.111 119.99C128.111 120.23 128.104 120.413 128.091 120.54H123.561C123.581 120.953 123.681 121.307 123.861 121.6C124.041 121.893 124.278 122.117 124.571 122.27C124.864 122.417 125.184 122.49 125.531 122.49C125.984 122.49 126.364 122.38 126.671 122.16C126.984 121.94 127.191 121.643 127.291 121.27H128.031C127.898 121.803 127.611 122.24 127.171 122.58C126.738 122.913 126.191 123.08 125.531 123.08C125.018 123.08 124.558 122.967 124.151 122.74C123.744 122.507 123.424 122.18 123.191 121.76C122.964 121.333 122.851 120.837 122.851 120.27C122.851 119.703 122.964 119.207 123.191 118.78C123.418 118.353 123.734 118.027 124.141 117.8C124.548 117.573 125.011 117.46 125.531 117.46C126.051 117.46 126.504 117.573 126.891 117.8C127.284 118.027 127.584 118.333 127.791 118.72C128.004 119.1 128.111 119.523 128.111 119.99ZM127.401 119.97C127.408 119.563 127.324 119.217 127.151 118.93C126.984 118.643 126.754 118.427 126.461 118.28C126.168 118.133 125.848 118.06 125.501 118.06C124.981 118.06 124.538 118.227 124.171 118.56C123.804 118.893 123.601 119.363 123.561 119.97H127.401ZM130.302 118.13V121.52C130.302 121.853 130.365 122.083 130.492 122.21C130.618 122.337 130.842 122.4 131.162 122.4H131.802V123H131.052C130.558 123 130.192 122.887 129.952 122.66C129.712 122.427 129.592 122.047 129.592 121.52V118.13H128.832V117.54H129.592V116.17H130.302V117.54H131.802V118.13H130.302ZM134.836 123.08C134.21 123.08 133.696 122.937 133.296 122.65C132.903 122.357 132.683 121.96 132.636 121.46H133.356C133.39 121.767 133.533 122.017 133.786 122.21C134.046 122.397 134.393 122.49 134.826 122.49C135.206 122.49 135.503 122.4 135.716 122.22C135.936 122.04 136.046 121.817 136.046 121.55C136.046 121.363 135.986 121.21 135.866 121.09C135.746 120.97 135.593 120.877 135.406 120.81C135.226 120.737 134.98 120.66 134.666 120.58C134.26 120.473 133.93 120.367 133.676 120.26C133.423 120.153 133.206 119.997 133.026 119.79C132.853 119.577 132.766 119.293 132.766 118.94C132.766 118.673 132.846 118.427 133.006 118.2C133.166 117.973 133.393 117.793 133.686 117.66C133.98 117.527 134.313 117.46 134.686 117.46C135.273 117.46 135.746 117.61 136.106 117.91C136.466 118.203 136.66 118.61 136.686 119.13H135.986C135.966 118.81 135.84 118.553 135.606 118.36C135.38 118.16 135.066 118.06 134.666 118.06C134.313 118.06 134.026 118.143 133.806 118.31C133.586 118.477 133.476 118.683 133.476 118.93C133.476 119.143 133.54 119.32 133.666 119.46C133.8 119.593 133.963 119.7 134.156 119.78C134.35 119.853 134.61 119.937 134.936 120.03C135.33 120.137 135.643 120.24 135.876 120.34C136.11 120.44 136.31 120.587 136.476 120.78C136.643 120.973 136.73 121.23 136.736 121.55C136.736 121.843 136.656 122.107 136.496 122.34C136.336 122.567 136.113 122.747 135.826 122.88C135.54 123.013 135.21 123.08 134.836 123.08Z" fill="#2C2C2C" fill-opacity="0.8"/>
<defs>
<filter id="filter0_d_60_3" x="7.12827" y="0.719391" width="199.143" height="216.145" filterUnits="userSpaceOnUse" color-interpolation-filters="sRGB">
<feFlood flood-opacity="0" result="BackgroundImageFix"/>
<feColorMatrix in="SourceAlpha" type="matrix" values="0 0 0 0 0 0 0 0 0 0 0 0 0 0 0 0 0 0 127 0" result="hardAlpha"/>
<feOffset dy="4"/>
<feGaussianBlur stdDeviation="5"/>
<feComposite in2="hardAlpha" operator="out"/>
<feColorMatrix type="matrix" values="0 0 0 0 0.94902 0 0 0 0 0.772549 0 0 0 0 0.431373 0 0 0 0.27 0"/>
<feBlend mode="normal" in2="BackgroundImageFix" result="effect1_dropShadow_60_3"/>
<feBlend mode="normal" in="SourceGraphic" in2="effect1_dropShadow_60_3" result="shape"/>
</filter>
<filter id="filter1_d_60_3" x="81.0665" y="105.873" width="124.01" height="110.992" filterUnits="userSpaceOnUse" color-interpolation-filters="sRGB">
<feFlood flood-opacity="0" result="BackgroundImageFix"/>
<feColorMatrix in="SourceAlpha" type="matrix" values="0 0 0 0 0 0 0 0 0 0 0 0 0 0 0 0 0 0 127 0" result="hardAlpha"/>
<feOffset dy="4"/>
<feGaussianBlur stdDeviation="5"/>
<feComposite in2="hardAlpha" operator="out"/>
<feColorMatrix type="matrix" values="0 0 0 0 0.572549 0 0 0 0 0.894118 0 0 0 0 0.819608 0 0 0 0.27 0"/>
<feBlend mode="normal" in2="BackgroundImageFix" result="effect1_dropShadow_60_3"/>
<feBlend mode="normal" in="SourceGraphic" in2="effect1_dropShadow_60_3" result="shape"/>
</filter>
</defs>
</svg>
