<svg width="447" height="200" viewBox="0 0 447 200" fill="none" xmlns="http://www.w3.org/2000/svg">
<line x1="28" y1="89.5" x2="297" y2="89.5" stroke="#2C2C2C" stroke-opacity="0.1"/>
<line x1="28" y1="162.5" x2="297" y2="162.5" stroke="#2C2C2C" stroke-opacity="0.1"/>
<g filter="url(#filter0_d_60_4)">
<path d="M78 142.5C78 136.701 82.701 132 88.5 132C94.299 132 99 136.701 99 142.5V200H78V142.5Z" fill="#669AFF"/>
</g>
<g filter="url(#filter1_d_60_4)">
<path d="M154 27.5C154 21.701 158.701 17 164.5 17C170.299 17 175 21.701 175 27.5V200H154V27.5Z" fill="#92E4D1"/>
</g>
<g filter="url(#filter2_d_60_4)">
<path d="M225 95.5C225 89.701 229.701 85 235.5 85C241.299 85 246 89.701 246 95.5V200H225V95.5Z" fill="#F0A48C"/>
</g>
<path d="M375.764 13.612V18.892C375.764 19.724 375.96 20.34 376.352 20.74C376.752 21.14 377.296 21.34 377.984 21.34C378.672 21.34 379.208 21.144 379.592 20.752C379.984 20.352 380.18 19.732 380.18 18.892V13.612H381.02V18.88C381.02 19.944 380.736 20.744 380.168 21.28C379.608 21.816 378.876 22.084 377.972 22.084C377.068 22.084 376.332 21.816 375.764 21.28C375.204 20.744 374.924 19.944 374.924 18.88V13.612H375.764ZM383.734 16.612C383.918 16.204 384.198 15.888 384.574 15.664C384.958 15.44 385.426 15.328 385.978 15.328V16.204H385.75C385.142 16.204 384.654 16.368 384.286 16.696C383.918 17.024 383.734 17.572 383.734 18.34V22H382.894V15.448H383.734V16.612ZM389.989 15.352C390.605 15.352 391.141 15.496 391.597 15.784C392.053 16.072 392.381 16.436 392.581 16.876V15.448H393.421V22.168C393.421 22.768 393.289 23.3 393.025 23.764C392.769 24.228 392.409 24.584 391.945 24.832C391.481 25.088 390.953 25.216 390.361 25.216C389.521 25.216 388.821 25.016 388.261 24.616C387.709 24.216 387.365 23.672 387.229 22.984H388.057C388.201 23.44 388.473 23.804 388.873 24.076C389.281 24.348 389.777 24.484 390.361 24.484C390.785 24.484 391.165 24.392 391.501 24.208C391.837 24.032 392.101 23.768 392.293 23.416C392.485 23.064 392.581 22.648 392.581 22.168V20.548C392.373 20.996 392.041 21.368 391.585 21.664C391.137 21.952 390.605 22.096 389.989 22.096C389.389 22.096 388.849 21.956 388.369 21.676C387.897 21.396 387.525 21 387.253 20.488C386.989 19.976 386.857 19.384 386.857 18.712C386.857 18.04 386.989 17.452 387.253 16.948C387.525 16.436 387.897 16.044 388.369 15.772C388.849 15.492 389.389 15.352 389.989 15.352ZM392.581 18.724C392.581 18.196 392.473 17.732 392.257 17.332C392.041 16.932 391.745 16.624 391.369 16.408C391.001 16.192 390.593 16.084 390.145 16.084C389.681 16.084 389.265 16.188 388.897 16.396C388.529 16.604 388.237 16.908 388.021 17.308C387.813 17.7 387.709 18.168 387.709 18.712C387.709 19.248 387.813 19.72 388.021 20.128C388.237 20.528 388.529 20.836 388.897 21.052C389.265 21.26 389.681 21.364 390.145 21.364C390.593 21.364 391.001 21.256 391.369 21.04C391.745 20.824 392.041 20.516 392.257 20.116C392.473 19.716 392.581 19.252 392.581 18.724ZM401.267 18.388C401.267 18.676 401.259 18.896 401.243 19.048H395.807C395.831 19.544 395.951 19.968 396.167 20.32C396.383 20.672 396.667 20.94 397.019 21.124C397.371 21.3 397.755 21.388 398.171 21.388C398.715 21.388 399.171 21.256 399.539 20.992C399.915 20.728 400.163 20.372 400.283 19.924H401.171C401.011 20.564 400.667 21.088 400.139 21.496C399.619 21.896 398.963 22.096 398.171 22.096C397.555 22.096 397.003 21.96 396.515 21.688C396.027 21.408 395.643 21.016 395.363 20.512C395.091 20 394.955 19.404 394.955 18.724C394.955 18.044 395.091 17.448 395.363 16.936C395.635 16.424 396.015 16.032 396.503 15.76C396.991 15.488 397.547 15.352 398.171 15.352C398.795 15.352 399.339 15.488 399.803 15.76C400.275 16.032 400.635 16.4 400.883 16.864C401.139 17.32 401.267 17.828 401.267 18.388ZM400.415 18.364C400.423 17.876 400.323 17.46 400.115 17.116C399.915 16.772 399.639 16.512 399.287 16.336C398.935 16.16 398.551 16.072 398.135 16.072C397.511 16.072 396.979 16.272 396.539 16.672C396.099 17.072 395.855 17.636 395.807 18.364H400.415ZM405.876 15.328C406.66 15.328 407.3 15.572 407.796 16.06C408.292 16.54 408.54 17.24 408.54 18.16V22H407.712V18.256C407.712 17.544 407.532 17 407.172 16.624C406.82 16.248 406.336 16.06 405.72 16.06C405.088 16.06 404.584 16.26 404.208 16.66C403.832 17.06 403.644 17.648 403.644 18.424V22H402.804V15.448H403.644V16.564C403.852 16.164 404.152 15.86 404.544 15.652C404.936 15.436 405.38 15.328 405.876 15.328ZM411.49 16.156V20.224C411.49 20.624 411.566 20.9 411.718 21.052C411.87 21.204 412.138 21.28 412.521 21.28H413.29V22H412.39C411.798 22 411.358 21.864 411.07 21.592C410.782 21.312 410.638 20.856 410.638 20.224V16.156H409.726V15.448H410.638V13.804H411.49V15.448H413.29V16.156H411.49Z" fill="#2C2C2C" fill-opacity="0.7"/>
<circle cx="359.266" cy="18.2657" r="5.26567" fill="#F0A48C"/>
<path d="M374.403 37.498V36.679H376.613V46H375.69V37.498H374.403ZM383.997 38.954C383.806 37.8273 383.152 37.264 382.034 37.264C381.185 37.264 380.548 37.5933 380.123 38.252C379.698 38.9107 379.503 39.9897 379.538 41.489C379.711 40.969 380.041 40.5617 380.526 40.267C381.02 39.9637 381.583 39.812 382.216 39.812C383.126 39.812 383.845 40.0937 384.374 40.657C384.911 41.2117 385.18 41.9787 385.18 42.958C385.18 43.53 385.067 44.05 384.842 44.518C384.625 44.9773 384.287 45.3457 383.828 45.623C383.377 45.9003 382.814 46.039 382.138 46.039C380.847 46.039 379.954 45.6273 379.46 44.804C378.975 43.9807 378.732 42.815 378.732 41.307C378.732 38.1003 379.833 36.497 382.034 36.497C382.866 36.497 383.52 36.7267 383.997 37.186C384.474 37.6367 384.755 38.226 384.842 38.954H383.997ZM382.047 40.592C381.64 40.592 381.254 40.6743 380.89 40.839C380.526 41.0037 380.227 41.255 379.993 41.593C379.768 41.9223 379.655 42.3297 379.655 42.815C379.655 43.517 379.863 44.102 380.279 44.57C380.695 45.038 381.302 45.272 382.099 45.272C382.766 45.272 383.299 45.0683 383.698 44.661C384.097 44.2537 384.296 43.699 384.296 42.997C384.296 42.243 384.101 41.6537 383.711 41.229C383.321 40.8043 382.766 40.592 382.047 40.592ZM388.624 41.164C388.086 40.9907 387.675 40.7177 387.389 40.345C387.111 39.9723 386.973 39.5217 386.973 38.993C386.973 38.525 387.09 38.109 387.324 37.745C387.566 37.3723 387.917 37.082 388.377 36.874C388.836 36.6573 389.386 36.549 390.028 36.549C390.669 36.549 391.219 36.6573 391.679 36.874C392.138 37.082 392.485 37.3723 392.719 37.745C392.961 38.109 393.083 38.525 393.083 38.993C393.083 39.513 392.94 39.9637 392.654 40.345C392.376 40.7263 391.969 40.9993 391.432 41.164C392.021 41.3113 392.485 41.593 392.823 42.009C393.161 42.425 393.33 42.932 393.33 43.53C393.33 44.0847 393.191 44.57 392.914 44.986C392.645 45.3933 392.259 45.7097 391.757 45.935C391.263 46.1603 390.686 46.273 390.028 46.273C389.369 46.273 388.788 46.1603 388.286 45.935C387.792 45.7097 387.406 45.3933 387.129 44.986C386.86 44.57 386.726 44.0847 386.726 43.53C386.726 42.932 386.895 42.425 387.233 42.009C387.571 41.593 388.034 41.3113 388.624 41.164ZM392.199 39.097C392.199 38.525 392.004 38.083 391.614 37.771C391.224 37.459 390.695 37.303 390.028 37.303C389.36 37.303 388.832 37.459 388.442 37.771C388.052 38.0743 387.857 38.5163 387.857 39.097C387.857 39.6343 388.056 40.0633 388.455 40.384C388.853 40.7047 389.378 40.865 390.028 40.865C390.678 40.865 391.202 40.7047 391.601 40.384C391.999 40.0633 392.199 39.6343 392.199 39.097ZM390.028 41.567C389.317 41.567 388.736 41.7273 388.286 42.048C387.835 42.3687 387.61 42.854 387.61 43.504C387.61 44.128 387.826 44.6177 388.26 44.973C388.693 45.3283 389.282 45.506 390.028 45.506C390.764 45.506 391.349 45.3283 391.783 44.973C392.216 44.609 392.433 44.1193 392.433 43.504C392.433 42.8627 392.207 42.3817 391.757 42.061C391.315 41.7317 390.738 41.567 390.028 41.567Z" fill="#2C2C2C"/>
<path d="M381.756 78.0209H380.916L376.272 70.9649V78.0209H375.432V69.6329H376.272L380.916 76.6769V69.6329H381.756V78.0209ZM386.526 78.1169C385.91 78.1169 385.354 77.9809 384.858 77.7089C384.37 77.4289 383.982 77.0369 383.694 76.5329C383.414 76.0209 383.274 75.4249 383.274 74.7449C383.274 74.0649 383.418 73.4729 383.706 72.9689C383.994 72.4569 384.386 72.0649 384.882 71.7929C385.378 71.5129 385.934 71.3729 386.55 71.3729C387.166 71.3729 387.722 71.5129 388.218 71.7929C388.722 72.0649 389.114 72.4569 389.394 72.9689C389.682 73.4729 389.826 74.0649 389.826 74.7449C389.826 75.4169 389.682 76.0089 389.394 76.5209C389.106 77.0329 388.71 77.4289 388.206 77.7089C387.702 77.9809 387.142 78.1169 386.526 78.1169ZM386.526 77.3849C386.958 77.3849 387.358 77.2889 387.726 77.0969C388.094 76.8969 388.39 76.6009 388.614 76.2089C388.846 75.8089 388.962 75.3209 388.962 74.7449C388.962 74.1689 388.85 73.6849 388.626 73.2929C388.402 72.8929 388.106 72.5969 387.738 72.4049C387.37 72.2049 386.97 72.1049 386.538 72.1049C386.106 72.1049 385.706 72.2049 385.338 72.4049C384.97 72.5969 384.674 72.8929 384.45 73.2929C384.234 73.6849 384.126 74.1689 384.126 74.7449C384.126 75.3209 384.234 75.8089 384.45 76.2089C384.674 76.6009 384.966 76.8969 385.326 77.0969C385.694 77.2889 386.094 77.3849 386.526 77.3849ZM392.197 72.6329C392.381 72.2249 392.661 71.9089 393.037 71.6849C393.421 71.4609 393.889 71.3489 394.441 71.3489V72.2249H394.213C393.605 72.2249 393.117 72.3889 392.749 72.7169C392.381 73.0449 392.197 73.5929 392.197 74.3609V78.0209H391.357V71.4689H392.197V72.6329ZM403.505 71.3489C404.273 71.3489 404.897 71.5929 405.377 72.0809C405.865 72.5609 406.109 73.2609 406.109 74.1809V78.0209H405.281V74.2769C405.281 73.5649 405.109 73.0209 404.765 72.6449C404.421 72.2689 403.953 72.0809 403.361 72.0809C402.745 72.0809 402.253 72.2849 401.885 72.6929C401.517 73.1009 401.333 73.6929 401.333 74.4689V78.0209H400.505V74.2769C400.505 73.5649 400.333 73.0209 399.989 72.6449C399.645 72.2689 399.173 72.0809 398.573 72.0809C397.957 72.0809 397.465 72.2849 397.097 72.6929C396.729 73.1009 396.545 73.6929 396.545 74.4689V78.0209H395.705V71.4689H396.545V72.5969C396.753 72.1889 397.049 71.8809 397.433 71.6729C397.817 71.4569 398.245 71.3489 398.717 71.3489C399.285 71.3489 399.781 71.4849 400.205 71.7569C400.637 72.0289 400.949 72.4289 401.141 72.9569C401.317 72.4369 401.617 72.0409 402.041 71.7689C402.473 71.4889 402.961 71.3489 403.505 71.3489ZM407.591 74.7329C407.591 74.0609 407.723 73.4729 407.987 72.9689C408.259 72.4569 408.631 72.0649 409.103 71.7929C409.583 71.5129 410.123 71.3729 410.723 71.3729C411.347 71.3729 411.883 71.5169 412.331 71.8049C412.787 72.0929 413.115 72.4609 413.315 72.9089V71.4689H414.155V78.0209H413.315V76.5689C413.107 77.0169 412.775 77.3889 412.319 77.6849C411.871 77.9729 411.335 78.1169 410.711 78.1169C410.119 78.1169 409.583 77.9769 409.103 77.6969C408.631 77.4169 408.259 77.0209 407.987 76.5089C407.723 75.9969 407.591 75.4049 407.591 74.7329ZM413.315 74.7449C413.315 74.2169 413.207 73.7529 412.991 73.3529C412.775 72.9529 412.479 72.6449 412.103 72.4289C411.735 72.2129 411.327 72.1049 410.879 72.1049C410.415 72.1049 409.999 72.2089 409.631 72.4169C409.263 72.6249 408.971 72.9289 408.755 73.3289C408.547 73.7209 408.443 74.1889 408.443 74.7329C408.443 75.2689 408.547 75.7409 408.755 76.1489C408.971 76.5489 409.263 76.8569 409.631 77.0729C409.999 77.2809 410.415 77.3849 410.879 77.3849C411.327 77.3849 411.735 77.2769 412.103 77.0609C412.479 76.8449 412.775 76.5369 412.991 76.1369C413.207 75.7369 413.315 75.2729 413.315 74.7449ZM416.912 69.1409V78.0209H416.072V69.1409H416.912Z" fill="#2C2C2C" fill-opacity="0.7"/>
<path d="M374.403 95.3846V94.5656H376.613V103.887H375.69V95.3846H374.403ZM378.459 103.172C380.054 101.976 381.284 100.905 382.151 99.9606C383.026 99.0072 383.464 98.0756 383.464 97.1656C383.464 96.5676 383.312 96.0909 383.009 95.7356C382.714 95.3716 382.229 95.1896 381.553 95.1896C380.894 95.1896 380.383 95.3976 380.019 95.8136C379.664 96.2209 379.464 96.7669 379.421 97.4516H378.537C378.589 96.4896 378.884 95.7442 379.421 95.2156C379.967 94.6782 380.678 94.4096 381.553 94.4096C382.394 94.4096 383.074 94.6479 383.594 95.1246C384.114 95.5926 384.374 96.2599 384.374 97.1266C384.374 98.1752 383.936 99.1936 383.061 100.182C382.194 101.161 381.124 102.119 379.85 103.055H384.66V103.822H378.459V103.172ZM391.956 95.3456H387.198V98.6736C387.415 98.3702 387.731 98.1232 388.147 97.9326C388.563 97.7332 389.014 97.6336 389.499 97.6336C390.21 97.6336 390.791 97.7809 391.241 98.0756C391.692 98.3616 392.017 98.7386 392.216 99.2066C392.416 99.6659 392.515 100.16 392.515 100.689C392.515 101.295 392.398 101.846 392.164 102.34C391.939 102.825 391.588 103.211 391.111 103.497C390.643 103.783 390.058 103.926 389.356 103.926C388.464 103.926 387.74 103.696 387.185 103.237C386.631 102.769 386.293 102.14 386.171 101.352H387.068C387.181 101.924 387.441 102.366 387.848 102.678C388.256 102.99 388.758 103.146 389.356 103.146C390.11 103.146 390.678 102.925 391.059 102.483C391.449 102.032 391.644 101.438 391.644 100.702C391.644 99.9822 391.449 99.4232 391.059 99.0246C390.669 98.6172 390.11 98.4136 389.382 98.4136C388.88 98.4136 388.438 98.5306 388.056 98.7646C387.675 98.9986 387.393 99.3149 387.211 99.7136H386.353V94.5526H391.956V95.3456Z" fill="#2C2C2C"/>
<circle cx="359.266" cy="74.1523" r="5.26567" fill="#92E4D1"/>
<path d="M376.976 136.35C376.424 136.35 375.936 136.254 375.512 136.062C375.096 135.87 374.768 135.602 374.528 135.258C374.288 134.914 374.16 134.53 374.144 134.106H375.032C375.072 134.514 375.252 134.874 375.572 135.186C375.892 135.49 376.36 135.642 376.976 135.642C377.544 135.642 377.992 135.498 378.32 135.21C378.656 134.914 378.824 134.542 378.824 134.094C378.824 133.734 378.732 133.446 378.548 133.23C378.364 133.006 378.136 132.842 377.864 132.738C377.592 132.626 377.216 132.506 376.736 132.378C376.176 132.226 375.732 132.078 375.404 131.934C375.076 131.79 374.796 131.566 374.564 131.262C374.332 130.958 374.216 130.546 374.216 130.026C374.216 129.594 374.328 129.21 374.552 128.874C374.776 128.53 375.092 128.262 375.5 128.07C375.908 127.878 376.376 127.782 376.904 127.782C377.68 127.782 378.304 127.974 378.776 128.358C379.256 128.734 379.532 129.222 379.604 129.822H378.692C378.636 129.478 378.448 129.174 378.128 128.91C377.808 128.638 377.376 128.502 376.832 128.502C376.328 128.502 375.908 128.638 375.572 128.91C375.236 129.174 375.068 129.538 375.068 130.002C375.068 130.354 375.16 130.638 375.344 130.854C375.528 131.07 375.756 131.234 376.028 131.346C376.308 131.458 376.684 131.578 377.156 131.706C377.7 131.858 378.14 132.01 378.476 132.162C378.812 132.306 379.096 132.53 379.328 132.834C379.56 133.138 379.676 133.546 379.676 134.058C379.676 134.45 379.572 134.822 379.364 135.174C379.156 135.526 378.848 135.81 378.44 136.026C378.032 136.242 377.544 136.35 376.976 136.35ZM387.227 132.654C387.227 132.942 387.219 133.162 387.203 133.314H381.767C381.791 133.81 381.911 134.234 382.127 134.586C382.343 134.938 382.627 135.206 382.979 135.39C383.331 135.566 383.715 135.654 384.131 135.654C384.675 135.654 385.131 135.522 385.499 135.258C385.875 134.994 386.123 134.638 386.243 134.19H387.131C386.971 134.83 386.627 135.354 386.099 135.762C385.579 136.162 384.923 136.362 384.131 136.362C383.515 136.362 382.963 136.226 382.475 135.954C381.987 135.674 381.603 135.282 381.323 134.778C381.051 134.266 380.915 133.67 380.915 132.99C380.915 132.31 381.051 131.714 381.323 131.202C381.595 130.69 381.975 130.298 382.463 130.026C382.951 129.754 383.507 129.618 384.131 129.618C384.755 129.618 385.299 129.754 385.763 130.026C386.235 130.298 386.595 130.666 386.843 131.13C387.099 131.586 387.227 132.094 387.227 132.654ZM386.375 132.63C386.383 132.142 386.283 131.726 386.075 131.382C385.875 131.038 385.599 130.778 385.247 130.602C384.895 130.426 384.511 130.338 384.095 130.338C383.471 130.338 382.939 130.538 382.499 130.938C382.059 131.338 381.815 131.902 381.767 132.63H386.375ZM388.38 132.99C388.38 132.31 388.516 131.718 388.788 131.214C389.06 130.702 389.436 130.31 389.916 130.038C390.396 129.758 390.944 129.618 391.56 129.618C392.368 129.618 393.032 129.818 393.552 130.218C394.08 130.618 394.42 131.162 394.572 131.85H393.672C393.56 131.378 393.316 131.01 392.94 130.746C392.572 130.474 392.112 130.338 391.56 130.338C391.12 130.338 390.724 130.438 390.372 130.638C390.02 130.838 389.74 131.138 389.532 131.538C389.332 131.93 389.232 132.414 389.232 132.99C389.232 133.566 389.332 134.054 389.532 134.454C389.74 134.854 390.02 135.154 390.372 135.354C390.724 135.554 391.12 135.654 391.56 135.654C392.112 135.654 392.572 135.522 392.94 135.258C393.316 134.986 393.56 134.61 393.672 134.13H394.572C394.42 134.802 394.08 135.342 393.552 135.75C393.024 136.158 392.36 136.362 391.56 136.362C390.944 136.362 390.396 136.226 389.916 135.954C389.436 135.674 389.06 135.282 388.788 134.778C388.516 134.266 388.38 133.67 388.38 132.99ZM398.991 136.362C398.375 136.362 397.819 136.226 397.323 135.954C396.835 135.674 396.447 135.282 396.159 134.778C395.879 134.266 395.739 133.67 395.739 132.99C395.739 132.31 395.883 131.718 396.171 131.214C396.459 130.702 396.851 130.31 397.347 130.038C397.843 129.758 398.399 129.618 399.015 129.618C399.631 129.618 400.187 129.758 400.683 130.038C401.187 130.31 401.579 130.702 401.859 131.214C402.147 131.718 402.291 132.31 402.291 132.99C402.291 133.662 402.147 134.254 401.859 134.766C401.571 135.278 401.175 135.674 400.671 135.954C400.167 136.226 399.607 136.362 398.991 136.362ZM398.991 135.63C399.423 135.63 399.823 135.534 400.191 135.342C400.559 135.142 400.855 134.846 401.079 134.454C401.311 134.054 401.427 133.566 401.427 132.99C401.427 132.414 401.315 131.93 401.091 131.538C400.867 131.138 400.571 130.842 400.203 130.65C399.835 130.45 399.435 130.35 399.003 130.35C398.571 130.35 398.171 130.45 397.803 130.65C397.435 130.842 397.139 131.138 396.915 131.538C396.699 131.93 396.591 132.414 396.591 132.99C396.591 133.566 396.699 134.054 396.915 134.454C397.139 134.846 397.431 135.142 397.791 135.342C398.159 135.534 398.559 135.63 398.991 135.63ZM406.894 129.594C407.678 129.594 408.318 129.838 408.814 130.326C409.31 130.806 409.558 131.506 409.558 132.426V136.266H408.73V132.522C408.73 131.81 408.55 131.266 408.19 130.89C407.838 130.514 407.354 130.326 406.738 130.326C406.106 130.326 405.602 130.526 405.226 130.926C404.85 131.326 404.662 131.914 404.662 132.69V136.266H403.822V129.714H404.662V130.83C404.87 130.43 405.17 130.126 405.562 129.918C405.954 129.702 406.398 129.594 406.894 129.594ZM411.032 132.978C411.032 132.306 411.168 131.718 411.44 131.214C411.712 130.702 412.084 130.31 412.556 130.038C413.036 129.758 413.576 129.618 414.176 129.618C414.752 129.618 415.272 129.758 415.736 130.038C416.2 130.318 416.54 130.682 416.756 131.13V127.386H417.596V136.266H416.756V134.802C416.556 135.258 416.228 135.634 415.772 135.93C415.316 136.218 414.78 136.362 414.164 136.362C413.564 136.362 413.024 136.222 412.544 135.942C412.072 135.662 411.7 135.266 411.428 134.754C411.164 134.242 411.032 133.65 411.032 132.978ZM416.756 132.99C416.756 132.462 416.648 131.998 416.432 131.598C416.216 131.198 415.92 130.89 415.544 130.674C415.176 130.458 414.768 130.35 414.32 130.35C413.856 130.35 413.44 130.454 413.072 130.662C412.704 130.87 412.412 131.174 412.196 131.574C411.988 131.966 411.884 132.434 411.884 132.978C411.884 133.514 411.988 133.986 412.196 134.394C412.412 134.794 412.704 135.102 413.072 135.318C413.44 135.526 413.856 135.63 414.32 135.63C414.768 135.63 415.176 135.522 415.544 135.306C415.92 135.09 416.216 134.782 416.432 134.382C416.648 133.982 416.756 133.518 416.756 132.99ZM419.13 132.978C419.13 132.306 419.262 131.718 419.526 131.214C419.798 130.702 420.17 130.31 420.642 130.038C421.122 129.758 421.662 129.618 422.262 129.618C422.886 129.618 423.422 129.762 423.87 130.05C424.326 130.338 424.654 130.706 424.854 131.154V129.714H425.694V136.266H424.854V134.814C424.646 135.262 424.314 135.634 423.858 135.93C423.41 136.218 422.874 136.362 422.25 136.362C421.658 136.362 421.122 136.222 420.642 135.942C420.17 135.662 419.798 135.266 419.526 134.754C419.262 134.242 419.13 133.65 419.13 132.978ZM424.854 132.99C424.854 132.462 424.746 131.998 424.53 131.598C424.314 131.198 424.018 130.89 423.642 130.674C423.274 130.458 422.866 130.35 422.418 130.35C421.954 130.35 421.538 130.454 421.17 130.662C420.802 130.87 420.51 131.174 420.294 131.574C420.086 131.966 419.982 132.434 419.982 132.978C419.982 133.514 420.086 133.986 420.294 134.394C420.51 134.794 420.802 135.102 421.17 135.318C421.538 135.526 421.954 135.63 422.418 135.63C422.866 135.63 423.274 135.522 423.642 135.306C424.018 135.09 424.314 134.782 424.53 134.382C424.746 133.982 424.854 133.518 424.854 132.99ZM428.451 130.878C428.635 130.47 428.915 130.154 429.291 129.93C429.675 129.706 430.143 129.594 430.695 129.594V130.47H430.467C429.859 130.47 429.371 130.634 429.003 130.962C428.635 131.29 428.451 131.838 428.451 132.606V136.266H427.611V129.714H428.451V130.878ZM437.359 129.714L433.471 139.35H432.595L433.867 136.23L431.179 129.714H432.103L434.335 135.306L436.495 129.714H437.359Z" fill="#2C2C2C" fill-opacity="0.7"/>
<path d="M379.422 153.525L375.795 162.131H374.872L378.538 153.603H373.338V152.823H379.422V153.525ZM380.374 159.921V159.232L385.106 152.862H386.185V159.128H387.576V159.921H386.185V162.131H385.288V159.921H380.374ZM385.327 153.863L381.427 159.128H385.327V153.863Z" fill="#2C2C2C"/>
<circle cx="358.266" cy="132.397" r="5.26567" fill="#669AFF"/>
<path d="M3.66477 12.2727V21H2.8679V13.108H2.81676L0.771307 14.4673V13.6406L2.83381 12.2727H3.66477ZM9.06392 21.1193C8.70313 21.1165 8.35085 21.044 8.0071 20.902C7.66335 20.7571 7.35369 20.5256 7.07812 20.2074C6.80256 19.8864 6.58381 19.4631 6.42188 18.9375C6.25994 18.4119 6.17898 17.7656 6.17898 16.9986C6.17898 16.2884 6.24148 15.6378 6.36648 15.0469C6.49148 14.456 6.67898 13.9446 6.92898 13.5128C7.17898 13.081 7.49148 12.7472 7.86648 12.5114C8.24148 12.2727 8.6804 12.1534 9.18324 12.1534C9.65483 12.1534 10.071 12.2514 10.4318 12.4474C10.7926 12.6406 11.0852 12.9105 11.3097 13.2571C11.5341 13.6037 11.6747 14.0028 11.7315 14.4545H10.9474C10.8679 13.9943 10.679 13.6151 10.3807 13.3168C10.0824 13.0185 9.68324 12.8693 9.18324 12.8693C8.46733 12.8693 7.91335 13.2017 7.52131 13.8665C7.12926 14.5284 6.93182 15.4688 6.92898 16.6875H6.98438C7.12358 16.429 7.30256 16.206 7.52131 16.0185C7.7429 15.8281 7.99432 15.6804 8.27557 15.5753C8.55682 15.4673 8.85227 15.4134 9.16193 15.4134C9.64773 15.4134 10.0923 15.5369 10.4957 15.7841C10.8991 16.0284 11.2216 16.3651 11.4631 16.794C11.7045 17.2202 11.8253 17.7074 11.8253 18.2557C11.8253 18.7756 11.7102 19.2543 11.4801 19.6918C11.2528 20.1293 10.9318 20.4773 10.517 20.7358C10.1051 20.9943 9.62074 21.1222 9.06392 21.1193ZM9.06392 20.4034C9.4446 20.4034 9.78409 20.3068 10.0824 20.1136C10.3835 19.9205 10.6207 19.6619 10.794 19.3381C10.9673 19.0114 11.054 18.6506 11.054 18.2557C11.054 17.8608 10.9673 17.5028 10.794 17.1818C10.6207 16.8608 10.3835 16.6051 10.0824 16.4148C9.78409 16.2244 9.4446 16.1293 9.06392 16.1293C8.77415 16.1293 8.50426 16.1889 8.25426 16.3082C8.00426 16.4247 7.78693 16.5852 7.60227 16.7898C7.42045 16.9915 7.28125 17.223 7.18466 17.4844C7.09091 17.7457 7.0554 18.0199 7.07812 18.3068C7.10938 18.7074 7.21307 19.0668 7.3892 19.3849C7.56818 19.7003 7.80114 19.9489 8.08807 20.1307C8.37784 20.3125 8.70313 20.4034 9.06392 20.4034ZM16.3253 21.1193C15.7685 21.1193 15.2727 21.0142 14.8381 20.804C14.4034 20.5937 14.0625 20.3068 13.8153 19.9432C13.5682 19.5767 13.4446 19.1634 13.4446 18.7031C13.4446 18.3423 13.5199 18.0057 13.6705 17.6932C13.821 17.3778 14.0284 17.1136 14.2926 16.9006C14.5568 16.6847 14.8537 16.544 15.1832 16.4787V16.4318C14.7543 16.3068 14.4091 16.0611 14.1477 15.6946C13.8864 15.3253 13.7571 14.9062 13.7599 14.4375C13.7571 14.0028 13.8679 13.6136 14.0923 13.2699C14.3168 12.9261 14.6222 12.6548 15.0085 12.456C15.3977 12.2543 15.8366 12.1534 16.3253 12.1534C16.8111 12.1534 17.2472 12.2543 17.6335 12.456C18.0199 12.6548 18.3253 12.9261 18.5497 13.2699C18.777 13.6136 18.892 14.0028 18.8949 14.4375C18.892 14.9034 18.7599 15.3224 18.4986 15.6946C18.2372 16.0639 17.8935 16.3097 17.4673 16.4318V16.4787C17.7969 16.5412 18.0923 16.6804 18.3537 16.8963C18.6151 17.1122 18.8224 17.3778 18.9759 17.6932C19.1293 18.0057 19.206 18.3423 19.206 18.7031C19.206 19.1634 19.081 19.5767 18.831 19.9432C18.5838 20.3068 18.2429 20.5937 17.8082 20.804C17.3764 21.0142 16.8821 21.1193 16.3253 21.1193ZM16.3253 20.4034C16.7401 20.4034 17.1037 20.3295 17.4162 20.1818C17.7315 20.0312 17.9773 19.8253 18.1534 19.5639C18.3324 19.3026 18.4219 19.0028 18.4219 18.6648C18.4219 18.3153 18.3295 18.0043 18.1449 17.7315C17.9602 17.456 17.7102 17.2386 17.3949 17.0795C17.0795 16.9176 16.723 16.8366 16.3253 16.8366C15.9276 16.8366 15.5696 16.9176 15.2514 17.0795C14.9361 17.2386 14.6861 17.456 14.5014 17.7315C14.3196 18.0043 14.2287 18.3153 14.2287 18.6648C14.2287 19.0028 14.3153 19.3026 14.4886 19.5639C14.6648 19.8253 14.9105 20.0312 15.2259 20.1818C15.544 20.3295 15.9105 20.4034 16.3253 20.4034ZM16.3253 16.1548C16.6662 16.1548 16.9716 16.0824 17.2415 15.9375C17.5114 15.7926 17.7244 15.5952 17.8807 15.3452C18.0398 15.0923 18.1207 14.8054 18.1236 14.4844C18.1207 14.1662 18.0412 13.8849 17.8849 13.6406C17.7287 13.3935 17.5156 13.2017 17.2457 13.0653C16.9787 12.9261 16.6719 12.8565 16.3253 12.8565C15.9787 12.8565 15.669 12.9261 15.3963 13.0653C15.1264 13.2017 14.9134 13.3935 14.7571 13.6406C14.6037 13.8849 14.5284 14.1662 14.5312 14.4844C14.5284 14.8054 14.6051 15.0923 14.7614 15.3452C14.9205 15.5952 15.1349 15.7926 15.4048 15.9375C15.6776 16.0824 15.9844 16.1548 16.3253 16.1548Z" fill="#2C2C2C" fill-opacity="0.8"/>
<path d="M9.66903 94.1193C9.11222 94.1193 8.61648 94.0142 8.18182 93.804C7.74716 93.5937 7.40625 93.3068 7.15909 92.9432C6.91193 92.5767 6.78835 92.1634 6.78835 91.7031C6.78835 91.3423 6.86364 91.0057 7.0142 90.6932C7.16477 90.3778 7.37216 90.1136 7.63636 89.9006C7.90057 89.6847 8.19744 89.544 8.52699 89.4787V89.4318C8.09801 89.3068 7.75284 89.0611 7.49148 88.6946C7.23011 88.3253 7.10085 87.9062 7.10369 87.4375C7.10085 87.0028 7.21165 86.6136 7.43608 86.2699C7.66051 85.9261 7.96591 85.6548 8.35227 85.456C8.74148 85.2543 9.1804 85.1534 9.66903 85.1534C10.1548 85.1534 10.5909 85.2543 10.9773 85.456C11.3636 85.6548 11.669 85.9261 11.8935 86.2699C12.1207 86.6136 12.2358 87.0028 12.2386 87.4375C12.2358 87.9034 12.1037 88.3224 11.8423 88.6946C11.581 89.0639 11.2372 89.3097 10.8111 89.4318V89.4787C11.1406 89.5412 11.4361 89.6804 11.6974 89.8963C11.9588 90.1122 12.1662 90.3778 12.3196 90.6932C12.473 91.0057 12.5497 91.3423 12.5497 91.7031C12.5497 92.1634 12.4247 92.5767 12.1747 92.9432C11.9276 93.3068 11.5866 93.5937 11.152 93.804C10.7202 94.0142 10.2259 94.1193 9.66903 94.1193ZM9.66903 93.4034C10.0838 93.4034 10.4474 93.3295 10.7599 93.1818C11.0753 93.0312 11.321 92.8253 11.4972 92.5639C11.6761 92.3026 11.7656 92.0028 11.7656 91.6648C11.7656 91.3153 11.6733 91.0043 11.4886 90.7315C11.304 90.456 11.054 90.2386 10.7386 90.0795C10.4233 89.9176 10.0668 89.8366 9.66903 89.8366C9.27131 89.8366 8.91335 89.9176 8.59517 90.0795C8.27983 90.2386 8.02983 90.456 7.84517 90.7315C7.66335 91.0043 7.57244 91.3153 7.57244 91.6648C7.57244 92.0028 7.65909 92.3026 7.83239 92.5639C8.00852 92.8253 8.25426 93.0312 8.5696 93.1818C8.88778 93.3295 9.25426 93.4034 9.66903 93.4034ZM9.66903 89.1548C10.0099 89.1548 10.3153 89.0824 10.5852 88.9375C10.8551 88.7926 11.0682 88.5952 11.2244 88.3452C11.3835 88.0923 11.4645 87.8054 11.4673 87.4844C11.4645 87.1662 11.3849 86.8849 11.2287 86.6406C11.0724 86.3935 10.8594 86.2017 10.5895 86.0653C10.3224 85.9261 10.0156 85.8565 9.66903 85.8565C9.32244 85.8565 9.01278 85.9261 8.74006 86.0653C8.47017 86.2017 8.2571 86.3935 8.10085 86.6406C7.94744 86.8849 7.87216 87.1662 7.875 87.4844C7.87216 87.8054 7.94886 88.0923 8.10511 88.3452C8.2642 88.5952 8.47869 88.7926 8.74858 88.9375C9.02131 89.0824 9.32813 89.1548 9.66903 89.1548ZM14.1104 92.125V91.4773L18.0011 85.2727H18.4783V86.3594H18.1246L15.0011 91.3537V91.4091H20.1019V92.125H14.1104ZM18.1843 94V91.9205V91.6222V85.2727H18.9428V94H18.1843Z" fill="#2C2C2C" fill-opacity="0.8"/>
<path d="M6.76278 165.125V164.477L10.6534 158.273H11.1307V159.359H10.777L7.65341 164.354V164.409H12.7543V165.125H6.76278ZM10.8366 167V164.92V164.622V158.273H11.5952V167H10.8366ZM14.4833 167V166.416L17.3342 163.212C17.7063 162.791 18.006 162.432 18.2333 162.134C18.4606 161.835 18.6254 161.56 18.7276 161.307C18.8327 161.054 18.8853 160.791 18.8853 160.518C18.8853 160.186 18.8072 159.896 18.6509 159.649C18.4975 159.399 18.2859 159.205 18.016 159.065C17.7461 158.926 17.4421 158.857 17.104 158.857C16.7461 158.857 16.4322 158.933 16.1623 159.087C15.8952 159.24 15.6879 159.45 15.5401 159.717C15.3924 159.984 15.3185 160.291 15.3185 160.638H14.5558C14.5558 160.155 14.6665 159.727 14.8881 159.355C15.1126 158.98 15.418 158.686 15.8043 158.473C16.1935 158.26 16.6339 158.153 17.1254 158.153C17.6112 158.153 18.043 158.259 18.4208 158.469C18.7987 158.676 19.0955 158.959 19.3114 159.317C19.5273 159.675 19.6353 160.075 19.6353 160.518C19.6353 160.839 19.5785 161.151 19.4648 161.452C19.354 161.753 19.1623 162.088 18.8896 162.457C18.6168 162.827 18.239 163.278 17.756 163.812L15.5913 166.229V166.284H19.908V167H14.4833Z" fill="#2C2C2C" fill-opacity="0.8"/>
<defs>
<filter id="filter0_d_60_4" x="66" y="115" width="47" height="94" filterUnits="userSpaceOnUse" color-interpolation-filters="sRGB">
<feFlood flood-opacity="0" result="BackgroundImageFix"/>
<feColorMatrix in="SourceAlpha" type="matrix" values="0 0 0 0 0 0 0 0 0 0 0 0 0 0 0 0 0 0 127 0" result="hardAlpha"/>
<feOffset dx="1" dy="-4"/>
<feGaussianBlur stdDeviation="6.5"/>
<feComposite in2="hardAlpha" operator="out"/>
<feColorMatrix type="matrix" values="0 0 0 0 0.4 0 0 0 0 0.603922 0 0 0 0 1 0 0 0 0.49 0"/>
<feBlend mode="normal" in2="BackgroundImageFix" result="effect1_dropShadow_60_4"/>
<feBlend mode="normal" in="SourceGraphic" in2="effect1_dropShadow_60_4" result="shape"/>
</filter>
<filter id="filter1_d_60_4" x="142" y="0" width="47" height="209" filterUnits="userSpaceOnUse" color-interpolation-filters="sRGB">
<feFlood flood-opacity="0" result="BackgroundImageFix"/>
<feColorMatrix in="SourceAlpha" type="matrix" values="0 0 0 0 0 0 0 0 0 0 0 0 0 0 0 0 0 0 127 0" result="hardAlpha"/>
<feOffset dx="1" dy="-4"/>
<feGaussianBlur stdDeviation="6.5"/>
<feComposite in2="hardAlpha" operator="out"/>
<feColorMatrix type="matrix" values="0 0 0 0 0.572549 0 0 0 0 0.894118 0 0 0 0 0.819608 0 0 0 0.49 0"/>
<feBlend mode="normal" in2="BackgroundImageFix" result="effect1_dropShadow_60_4"/>
<feBlend mode="normal" in="SourceGraphic" in2="effect1_dropShadow_60_4" result="shape"/>
</filter>
<filter id="filter2_d_60_4" x="213" y="68" width="47" height="141" filterUnits="userSpaceOnUse" color-interpolation-filters="sRGB">
<feFlood flood-opacity="0" result="BackgroundImageFix"/>
<feColorMatrix in="SourceAlpha" type="matrix" values="0 0 0 0 0 0 0 0 0 0 0 0 0 0 0 0 0 0 127 0" result="hardAlpha"/>
<feOffset dx="1" dy="-4"/>
<feGaussianBlur stdDeviation="6.5"/>
<feComposite in2="hardAlpha" operator="out"/>
<feColorMatrix type="matrix" values="0 0 0 0 0.941176 0 0 0 0 0.643137 0 0 0 0 0.54902 0 0 0 0.49 0"/>
<feBlend mode="normal" in2="BackgroundImageFix" result="effect1_dropShadow_60_4"/>
<feBlend mode="normal" in="SourceGraphic" in2="effect1_dropShadow_60_4" result="shape"/>
</filter>
</defs>
</svg>
